<svg id="logosandtypes_com" data-name="logosandtypes com" xmlns="http://www.w3.org/2000/svg" viewBox="0 0 150 150"><defs><style>.cls-1{fill:none;}.cls-2{fill:#61a82a;}</style></defs><path class="cls-1" d="M0,.2H150v150H0Z" transform="translate(0 -0.2)"/><path class="cls-2" d="M76,132V121.39s9.94-10.06,14.89-15c4.19-4.21,8.45-8.36,12.61-12.6A14.4,14.4,0,0,0,83.46,73.13c-3.15,3-6.16,6.11-9.25,9.15C63.69,93.17,43.4,89.47,38.25,75,34.71,66.45,36,58.19,42.59,51.43c11-11.15,33.3-33.14,33.3-33.14V29.08S57.19,47.69,48.52,56.41c-13,13.76,6,33,20.1,20.46,2.24-2.13,4.39-4.35,6.58-6.53,1-1,2-2,3-3,12-11.56,33.9-4.91,36.7,11.69,1.55,7.57-.22,14.45-5.74,20C98.16,110.08,76,132,76,132Z" transform="translate(0 -0.2)"/><path class="cls-2" d="M115.44,57.61V68.9a27.08,27.08,0,0,0-32.06-9.82c-7.27,2.71-12,9.41-17.56,14.52-9.56,9.05-23.38-4.49-14.27-14.14,8.17-8.24,24.28-24.32,24.28-24.32V46.41l-18.12,18c-1.15,1-2,2.29-.57,3.58a1.85,1.85,0,0,0,2.69.3c3.28-3.09,6.39-6.38,9.64-9.51A34.19,34.19,0,0,1,115.44,57.61Z" transform="translate(0 -0.2)"/><polygon class="cls-2" points="36.57 50.9 36.57 40.57 75.88 0.8 75.88 11.69 36.57 50.9"/><polygon class="cls-2" points="76.08 138.18 115.33 99.01 115.33 109.26 76.08 149 76.08 138.18"/><path class="cls-2" d="M36.52,92.5V81.2A27.08,27.08,0,0,0,68.58,91c7.26-2.71,12-9.42,17.56-14.52C95.7,67.46,109.52,81,100.4,90.64,92.24,98.89,76.13,115,76.13,115V103.69l18.12-18c1.14-1,2-2.29.57-3.59a1.85,1.85,0,0,0-2.69-.29c-3.28,3.09-6.39,6.38-9.64,9.5A34.19,34.19,0,0,1,36.52,92.5Z" transform="translate(0 -0.2)"/></svg>